<svg width="198" height="60" viewBox="0 0 198 60" fill="none" xmlns="http://www.w3.org/2000/svg">
<rect x="4" y="4" width="190" height="52" fill="#FF4655"/>
<path d="M20.0364 31.104H18.6284V27.36H24.4204V36.032C24.4204 38.8053 23.0337 40.192 20.2604 40.192H17.3804C14.607 40.192 13.2204 38.8053 13.2204 36.032V21.568C13.2204 18.7947 14.607 17.408 17.3804 17.408H20.1964C22.9697 17.408 24.3564 18.7947 24.3564 21.568V25.856H19.9404V22.048C19.9404 21.5147 19.6737 21.248 19.1404 21.248H18.5004C17.967 21.248 17.7004 21.5147 17.7004 22.048V35.552C17.7004 36.0853 17.967 36.352 18.5004 36.352H19.2364C19.7697 36.352 20.0364 36.0853 20.0364 35.552V31.104ZM35.7959 32.736H29.9719V35.84C29.9719 36.3093 30.2065 36.544 30.6759 36.544H31.0599C31.5292 36.544 31.7639 36.3093 31.7639 35.84V34.144H35.7959V36.288C35.7959 38.8907 34.4945 40.192 31.8919 40.192H29.7159C27.1132 40.192 25.8119 38.8907 25.8119 36.288V25.792C25.8119 23.1893 27.1132 21.888 29.7159 21.888H31.8919C34.4945 21.888 35.7959 23.1893 35.7959 25.792V32.736ZM29.9719 26.176V29.472H31.6999V26.176C31.6999 25.7067 31.4652 25.472 30.9959 25.472H30.6759C30.2065 25.472 29.9719 25.7067 29.9719 26.176ZM41.9281 25.6V40H37.7041V25.6H36.5521V22.08H37.7041V19.2H41.9281V22.08H43.5921V25.6H41.9281ZM54.2206 25.184L55.8206 17.6H60.0766L56.3006 32.032V40H51.8206V32.352L48.0446 17.6H52.7166L54.2206 25.184ZM64.7191 25.6H64.2711C63.8018 25.6 63.5671 25.8347 63.5671 26.304V35.776C63.5671 36.2453 63.8018 36.48 64.2711 36.48H64.7191C65.1885 36.48 65.4231 36.2453 65.4231 35.776V26.304C65.4231 25.8347 65.1885 25.6 64.7191 25.6ZM65.7431 40.192H63.2471C60.6445 40.192 59.3431 38.8907 59.3431 36.288V25.792C59.3431 23.1893 60.6445 21.888 63.2471 21.888H65.7431C68.3458 21.888 69.6471 23.1893 69.6471 25.792V36.288C69.6471 38.8907 68.3458 40.192 65.7431 40.192ZM81.2089 22.08V40H77.0489V38.816C75.9822 39.7333 74.9582 40.192 73.9769 40.192H73.6569C71.8649 40.192 70.9689 39.2213 70.9689 37.28V22.08H75.1929V35.776C75.1929 36.2453 75.4702 36.48 76.0249 36.48C76.3235 36.48 76.6435 36.416 76.9849 36.288V22.08H81.2089ZM82.6259 40V22.08H86.7859V24.032C87.1485 23.2853 87.5219 22.752 87.9059 22.432C88.2899 22.0907 88.7805 21.92 89.3779 21.92V26.496C88.3112 26.5813 87.4685 26.9013 86.8499 27.456V40H82.6259ZM101.408 30.112H105.824V36.032C105.824 38.8053 104.437 40.192 101.664 40.192H98.9116C96.1383 40.192 94.7516 38.8053 94.7516 36.032V21.568C94.7516 18.7947 96.1383 17.408 98.9116 17.408H101.6C104.373 17.408 105.76 18.7947 105.76 21.568V26.816H101.344V22.048C101.344 21.5147 101.077 21.248 100.544 21.248H100.032C99.4983 21.248 99.2316 21.5147 99.2316 22.048V35.552C99.2316 36.0853 99.4983 36.352 100.032 36.352H100.608C101.141 36.352 101.408 36.0853 101.408 35.552V30.112ZM107.22 40V17.28H111.444V23.264C112.51 22.3467 113.513 21.888 114.452 21.888H114.772C116.564 21.888 117.46 22.8587 117.46 24.8V40H113.236V26.304C113.236 25.8347 112.958 25.6 112.404 25.6C112.105 25.6 111.785 25.664 111.444 25.792V40H107.22ZM118.717 37.28V33.248C118.717 32.2667 118.887 31.5307 119.229 31.04C119.57 30.528 120.189 30.1227 121.085 29.824L124.541 28.64V26.144C124.541 25.6747 124.306 25.44 123.837 25.44H123.581C123.069 25.44 122.813 25.6747 122.813 26.144V28.32H118.909V25.792C118.909 23.1893 120.21 21.888 122.813 21.888H124.797C127.399 21.888 128.701 23.1893 128.701 25.792V40H124.605V38.816C123.517 39.7333 122.482 40.192 121.501 40.192H121.437C120.562 40.192 119.89 39.9467 119.421 39.456C118.951 38.944 118.717 38.2187 118.717 37.28ZM123.549 36.544C123.933 36.544 124.263 36.4907 124.541 36.384V32L123.357 32.544C122.951 32.736 122.749 33.0667 122.749 33.536V35.84C122.749 36.3093 123.015 36.544 123.549 36.544ZM130.095 40V17.28H134.319V40H130.095ZM135.783 40V17.28H140.007V40H135.783ZM151.358 32.736H145.534V35.84C145.534 36.3093 145.769 36.544 146.238 36.544H146.622C147.092 36.544 147.326 36.3093 147.326 35.84V34.144H151.358V36.288C151.358 38.8907 150.057 40.192 147.454 40.192H145.278C142.676 40.192 141.374 38.8907 141.374 36.288V25.792C141.374 23.1893 142.676 21.888 145.278 21.888H147.454C150.057 21.888 151.358 23.1893 151.358 25.792V32.736ZM145.534 26.176V29.472H147.262V26.176C147.262 25.7067 147.028 25.472 146.558 25.472H146.238C145.769 25.472 145.534 25.7067 145.534 26.176ZM152.688 40V22.08H156.848V23.264C157.915 22.3467 158.939 21.888 159.92 21.888H160.24C162.032 21.888 162.928 22.8587 162.928 24.8V40H158.704V26.304C158.704 25.8347 158.427 25.6 157.872 25.6C157.574 25.6 157.254 25.664 156.912 25.792V40H152.688ZM174.553 22.08V39.904C174.553 42.4 173.295 43.648 170.777 43.648H167.673C165.412 43.648 164.281 42.528 164.281 40.288V39.168H168.057V39.808C168.057 40.2773 168.292 40.512 168.761 40.512H169.689C170.159 40.512 170.393 40.2773 170.393 39.808V37.12C169.348 37.952 168.303 38.368 167.257 38.368H167.193C166.255 38.368 165.529 38.1013 165.017 37.568C164.505 37.0347 164.249 36.2667 164.249 35.264V24.992C164.249 23.9893 164.505 23.2213 165.017 22.688C165.529 22.1547 166.255 21.888 167.193 21.888H167.257C168.303 21.888 169.348 22.304 170.393 23.136V22.08H174.553ZM170.329 34.624V25.792C169.988 25.664 169.647 25.6 169.305 25.6C168.751 25.6 168.473 25.8347 168.473 26.304V34.112C168.473 34.5813 168.751 34.816 169.305 34.816C169.647 34.816 169.988 34.752 170.329 34.624ZM185.89 32.736H180.066V35.84C180.066 36.3093 180.3 36.544 180.77 36.544H181.154C181.623 36.544 181.858 36.3093 181.858 35.84V34.144H185.89V36.288C185.89 38.8907 184.588 40.192 181.986 40.192H179.81C177.207 40.192 175.906 38.8907 175.906 36.288V25.792C175.906 23.1893 177.207 21.888 179.81 21.888H181.986C184.588 21.888 185.89 23.1893 185.89 25.792V32.736ZM180.066 26.176V29.472H181.794V26.176C181.794 25.7067 181.559 25.472 181.09 25.472H180.77C180.3 25.472 180.066 25.7067 180.066 26.176Z" fill="white"/>
<rect x="0.5" y="0.5" width="197" height="59" stroke="white"/>
</svg>
